<?xml version="1.0" standalone="no"?>
<!DOCTYPE svg PUBLIC "-//W3C//DTD SVG 20010904//EN"
 "http://www.w3.org/TR/2001/REC-SVG-20010904/DTD/svg10.dtd">
<svg version="1.0" xmlns="http://www.w3.org/2000/svg"
 width="170.000000pt" height="170.000000pt" viewBox="0 0 170.000000 170.000000"
 preserveAspectRatio="xMidYMid meet">
<metadata>
Created by potrace 1.11, written by Peter Selinger 2001-2013
</metadata>
<g transform="translate(0.000000,170.000000) scale(0.100000,-0.100000)"
fill="#000000" stroke="none">
<path d="M1048 1439 c-23 -13 -78 -93 -78 -112 0 -13 -7 -12 -40 4 -150 73
-365 56 -503 -39 -101 -70 -175 -200 -190 -333 -1 -14 -19 -51 -40 -82 -80
-121 -100 -203 -89 -368 2 -31 39 -52 65 -37 14 7 17 24 16 91 -1 79 22 190
41 202 4 3 11 -14 15 -37 16 -96 73 -241 116 -297 11 -13 19 -40 19 -60 0 -44
8 -57 42 -70 38 -14 70 13 72 62 1 20 5 39 8 43 4 3 34 7 67 8 l61 2 0 -43 c0
-53 26 -82 70 -75 30 4 42 23 45 72 2 14 3 30 4 35 1 8 159 12 227 6 7 -1 11
-18 11 -42 -1 -32 4 -46 22 -60 20 -16 26 -17 54 -6 28 12 32 19 35 55 2 27 9
45 20 50 14 6 110 8 183 3 12 -1 15 -11 12 -45 -3 -40 -1 -44 28 -59 34 -16
78 -7 80 17 1 6 3 28 4 50 2 28 11 46 33 67 124 116 174 238 167 409 -2 52 -7
115 -11 140 -3 25 -6 52 -7 60 0 8 -4 21 -10 28 -8 10 -7 16 4 23 10 6 11 9 1
9 -22 0 -26 30 -6 45 18 14 18 14 -1 9 -17 -4 -24 6 -47 63 -15 37 -30 82 -34
98 -12 51 -71 124 -103 125 -22 0 -91 -76 -97 -109 -6 -31 -7 -31 -69 -31 -63
0 -63 0 -75 34 -12 36 -73 106 -93 106 -7 0 -20 -5 -29 -11z"/>
</g>
</svg>
